<svg xmlns="http://www.w3.org/2000/svg" version="1.1" xmlns:xlink="http://www.w3.org/1999/xlink" xmlns:svgjs="http://svgjs.dev/svgjs" viewBox="0 0 8.050258894525797 2.112493944957478"><g transform="matrix(1,0,0,1,2.7691233442336363,0.3548583946653181)"><g><path d=" M 0.0915 1.095 L 0.0915 0.030000000000000027 L 0.384 0.030000000000000027 L 0.384 0.43499999999999994 L 0.708 0.030000000000000027 L 1.038 0.030000000000000027 L 0.651 0.507 L 1.065 1.095 L 0.729 1.095 L 0.465 0.7035 L 0.384 0.7875 L 0.384 1.095 Z M 1.3874999999999997 0.030000000000000027 L 1.7144999999999997 0.030000000000000027 L 2.0534999999999997 1.095 L 1.7565 1.095 L 1.6919999999999997 0.8865 L 1.4084999999999999 0.8865 L 1.3455 1.095 L 1.047 1.095 Z M 1.6454999999999997 0.6915 L 1.5509999999999997 0.3165 L 1.452 0.6915 Z M 2.157 1.095 L 2.157 0.030000000000000027 L 2.646 0.030000000000000027 Q 2.724 0.030000000000000027 2.79 0.06149999999999989 Q 2.856 0.09299999999999997 2.904 0.14625 Q 2.952 0.1994999999999999 2.97825 0.26549999999999996 Q 3.0045 0.3314999999999999 3.0045 0.3989999999999999 Q 3.0045 0.4604999999999999 2.9865000000000004 0.5175 Q 2.9685 0.5745 2.934 0.62175 Q 2.8995 0.669 2.8515 0.7035 L 3.0765000000000002 1.095 L 2.7555 1.095 L 2.568 0.768 L 2.4495 0.768 L 2.4495 1.095 Z M 2.4495 0.513 L 2.6340000000000003 0.513 Q 2.652 0.513 2.6685 0.49949999999999994 Q 2.685 0.486 2.69625 0.4604999999999999 Q 2.7075 0.43499999999999994 2.7075 0.3989999999999999 Q 2.7075 0.36149999999999993 2.69475 0.33675 Q 2.6820000000000004 0.31199999999999994 2.66325 0.2985 Q 2.6445 0.2849999999999999 2.6265 0.2849999999999999 L 2.4495 0.2849999999999999 Z M 3.4305 0.030000000000000027 L 3.7575 0.030000000000000027 L 4.0965 1.095 L 3.7995 1.095 L 3.735 0.8865 L 3.4515 0.8865 L 3.3885 1.095 L 3.09 1.095 Z M 3.6885 0.6915 L 3.594 0.3165 L 3.495 0.6915 Z M 4.2 1.095 L 4.2 0.030000000000000027 L 4.9305 0.030000000000000027 L 4.9305 0.2849999999999999 L 4.492500000000001 0.2849999999999999 L 4.492500000000001 0.46199999999999997 L 4.8495 0.46199999999999997 L 4.8495 0.699 L 4.492500000000001 0.699 L 4.492500000000001 1.095 Z" fill="#404040" fill-rule="nonzero"></path></g><g></g><g clip-path="url(&quot;#SvgjsClipPath1022&quot;)"><path d=" M -2.0787259058962566 0.3972006088589874 L -1.9934180355487034 0.3972006088589874 C -1.961395617210779 0.15787208539143338 -1.7564481343497609 -0.026722844373157976 -1.5083583536375338 -0.026722844373157976 C -1.2602685729253067 -0.026722844373157976 -1.0553226306405583 0.15787208539143333 -1.0233017528789032 0.3972006088589874 L -0.9379923419550809 0.3972006088589874 C -0.9039960469680561 0.3971843265417662 -0.8701693890795401 0.40199158660940026 -0.8375236605393319 0.4114786697247569 L -0.8375236605393319 0.6615141982653685 L -0.5892829033526936 0.6615141982653685 C -0.5802783621845586 0.69338404980665 -0.5757193324805856 0.7263449947178267 -0.5757350756386697 0.7594624969042073 L -0.5757350756386692 0.7594624969042073 C -0.5757350756386692 0.9587067664155189 -0.7387511535963085 1.121725925525697 -0.9379923419550809 1.121725925525697 L -2.0787259058962566 1.121725925525697 C -2.2779701754075674 1.121725925525697 -2.440987793941476 0.9587067664155189 -2.440987793941476 0.7594624969042074 L -2.440987793941476 0.7594624969042074 C -2.440987793941476 0.560218227392896 -2.2779701754075674 0.3972036900115264 -2.0787259058962566 0.3972036900115264 Z M -0.9004716069112944 0.08452062747150639 L -0.9004716069112944 0.0017562485449057752 L -0.9832421481429727 0.0017562485449057752 L -0.9832421481429727 0.08452062747150639 Z M -0.4561940600064529 0.3855230407361418 L -0.5538804606794758 0.3855230407361418 L -0.5538804606794758 0.2878412617919272 L -0.4561940600064529 0.2878412617919272 L -0.4561940600064529 0.3855307436174894 Z M -0.7700818531892255 0.4110966068099197 L -0.7700818531892255 0.5940677691864531 L -0.5871091502364227 0.5940677691864531 L -0.5871091502364227 0.4110966068099197 Z M -0.49148250003572724 0.2090053523525636 L -0.49148250003572724 0.07381978470352679 L -0.6266665271084946 0.07381978470352679 L -0.6266665271084946 0.2090053523525636 Z M -0.7268609859482715 0.25814973534976327 L -0.7268609859482715 0.12296416770072649 L -0.8620450130210386 0.12296416770072649 L -0.8620450130210386 0.25814973534976327 Z M -0.39999999999999947 0.7651194929658286 L -0.535184027072767 0.7651194929658286 L -0.535184027072767 0.6299354658930614 L -0.39999999999999947 0.6299354658930614 L -0.39999999999999947 0.7651194929658287 Z M -0.8375236605393324 0.6615111171128295 L -0.9677593566344507 0.6615111171128295 L -0.9677593566344507 0.5500858572683636 L -1.079179994750108 0.5500858572683636 L -1.079179994750108 0.6615111171128295 L -0.9677593566344507 0.6615111171128295 L -0.9677593566344507 0.7917421914791392 L -0.8375236605393324 0.7917421914791392 L -0.8375236605393324 0.6615111171128295 Z M -1.244506937112004 0.8268734927289241 L -1.244506937112004 0.7389882382824899 L -1.332393732134708 0.7389882382824899 L -1.332393732134708 0.8268734927289241 Z M -1.166905029264514 0.49548321254830874 L -1.166905029264514 0.39779373072274676 L -1.264594511090076 0.39779373072274676 L -1.264594511090076 0.49548321254830885 Z M -1.0094273229957442 0.9484311226979225 L -1.0094273229957442 0.8507462626011688 L -1.1071152642450366 0.8507462626011688 L -1.1071152642450366 0.9484311226979225 Z" fill="#2a75bb" transform="matrix(1,0,0,1,0,0)" fill-rule="evenodd"></path><path d=" M -1.9681895585592946 0.29486937073340763 C -1.8996909158883073 0.10724258687043106 -1.7196946062881877 -0.026722844373157976 -1.508352191332456 -0.026722844373157976 C -1.2602639511964981 -0.026722844373157976 -1.0553164683354805 0.15787208539143333 -1.0232955905738252 0.3972006088589874 L -0.9379861796500031 0.3972006088589874 C -0.9039898846629781 0.3971843265417662 -0.8701632267744626 0.40199158660940026 -0.8375174982342541 0.4114786697247569 L -0.8375174982342541 0.6615141982653685 L -0.6114348495319017 0.6615141982653685 C -0.6534355803674083 0.8577466411697983 -0.7772532357237703 1.023612785226021 -0.9454533528282922 1.121725925525697 L -1.6532526329369894 1.121725925525697 C -1.8623596717256699 0.9997723674554357 -2.0029064447925826 0.773102759194402 -2.0029064447925826 0.5135711185285635 C -2.0029627024633827 0.43929409505160544 -1.9912450179183565 0.36547762220064983 -1.9681895585592908 0.2948693707333967 Z M -0.6032513083882929 0.4110966068099197 L -0.7700833937654952 0.4110966068099197 L -0.7700833937654952 0.5940677691864531 L -0.6004151074761346 0.5940677691864531 C -0.5973495320249629 0.5673439731537601 -0.5958105651526504 0.5404670894709597 -0.5958057032777766 0.5135680373760251 C -0.5958096686788015 0.47927562728742834 -0.5983006383609508 0.4450286557264377 -0.6032590112694658 0.41109660681111604 Z M -0.9004716069112944 0.08452062747150639 L -0.9004716069112944 0.0017562485449057752 L -0.9832421481429727 0.0017562485449057752 L -0.9832421481429727 0.08452062747150639 Z M -0.7268609859482715 0.25814357304468527 L -0.7268609859482715 0.12296416770072649 L -0.8620450130210386 0.12296416770072649 L -0.8620450130210386 0.25814973534976327 Z M -0.8375236605393324 0.6615049548077514 L -0.9677593566344507 0.6615049548077514 L -0.9677593566344507 0.5500858572683636 L -1.079179994750108 0.5500858572683636 L -1.079179994750108 0.6615111171128295 L -0.9677593566344507 0.6615111171128295 L -0.9677593566344507 0.7917421914791392 L -0.8375236605393324 0.7917421914791392 L -0.8375236605393324 0.6615111171128295 Z M -1.244506937112004 0.8268734927289241 L -1.244506937112004 0.7389882382824899 L -1.332393732134708 0.7389882382824899 L -1.332393732134708 0.8268734927289241 Z M -1.166905029264514 0.49548321254830874 L -1.166905029264514 0.39779373072274676 L -1.264594511090076 0.39779373072274676 L -1.264594511090076 0.49548321254830885 Z M -1.0094273229957442 0.9484311226979225 L -1.0094273229957442 0.8507462626011688 L -1.1071152642450366 0.8507462626011688 L -1.1071152642450366 0.9484311226979225 Z" fill="#1099d6" transform="matrix(1,0,0,1,0,0)" fill-rule="evenodd"></path><path d=" M -1.4661157523277155 -0.024895720917525406 C -1.237332473424921 -0.005330402294815809 -1.0534847231510391 0.17160478225779816 -1.0233017528789032 0.3972006088589874 L -0.9379923419550811 0.3972006088589874 C -0.9039960469680564 0.3971843265417662 -0.8701693890795406 0.40199158660940026 -0.8375236605393324 0.4114786697247569 L -0.8375236605393324 0.6615141982653685 L -0.5892829033526936 0.6615141982653685 C -0.5802783621845586 0.69338404980665 -0.5757193324805856 0.7263449947178267 -0.5757350756386697 0.7594624969042073 L -0.5757350756386697 0.7594624969042073 C -0.5757350756386697 0.9560831650285525 -0.7344960819399369 1.1174107713948143 -0.9301492681670327 1.1216227069156401 C -1.3138683024939142 1.1160042252607565 -1.6232113956816479 0.8032564585174173 -1.6232113956816479 0.4182048257174144 C -1.6234470435447068 0.25681888858000473 -1.5679555116123223 0.1003006834414841 -1.4661157523276531 -0.024895720917602154 Z M -0.9004669851824858 0.08452062747150639 L -0.9004669851824858 0.0017562485449057752 L -0.9832375264141644 0.0017562485449057752 L -0.9832375264141644 0.08452062747150639 Z M -0.4561894382776446 0.3855230407361418 L -0.5538758389506679 0.3855230407361418 L -0.5538758389506679 0.2878412617919272 L -0.4561894382776446 0.2878412617919272 L -0.4561894382776446 0.3855307436174894 Z M -0.7700772314604174 0.4110966068099197 L -0.7700772314604174 0.5940677691864531 L -0.5871091502364227 0.5940677691864531 L -0.5871091502364227 0.4110966068099197 Z M -0.49147787830691914 0.2090053523525636 L -0.49147787830691914 0.07381978470352679 L -0.6266619053796865 0.07381978470352679 L -0.6266619053796865 0.2090053523525636 Z M -0.726856364219463 0.25814973534976327 L -0.726856364219463 0.12296416770072649 L -0.8620403912922305 0.12296416770072649 L -0.8620403912922305 0.25814973534976327 Z M -0.39999537827119136 0.7651194929658286 L -0.5351794053439587 0.7651194929658286 L -0.5351794053439587 0.6299354658930614 L -0.39999537827119136 0.6299354658930614 L -0.39999537827119136 0.7651194929658287 Z M -0.8375190388105243 0.6615111171128295 L -0.9677547349056426 0.6615111171128295 L -0.9677547349056426 0.5500858572683636 L -1.0791753730212998 0.5500858572683636 L -1.0791753730212998 0.6615111171128295 L -0.9677547349056426 0.6615111171128295 L -0.9677547349056426 0.7917421914791392 L -0.8375190388105243 0.7917421914791392 L -0.8375190388105243 0.6615111171128295 Z M -1.244506937112004 0.8268734927289241 L -1.244506937112004 0.7389882382824899 L -1.332393732134708 0.7389882382824899 L -1.332393732134708 0.8268734927289241 Z M -1.166905029264514 0.49548321254830874 L -1.166905029264514 0.39779373072274676 L -1.264594511090076 0.39779373072274676 L -1.264594511090076 0.49548321254830885 Z M -1.0094273229957442 0.9484311226979225 L -1.0094273229957442 0.8507462626011688 L -1.1071152642450366 0.8507462626011688 L -1.1071152642450366 0.9484311226979225 Z" fill="#00b1e5" transform="matrix(1,0,0,1,0,0)" fill-rule="evenodd"></path><path d=" M -2.0551242774474443 0.4342976854286604 L -1.9904601291112545 0.4342976854286604 C -2.17190149925217 0.4342976854286604 -2.323278523493701 0.5694955776878532 -2.348882901092869 0.7441198978362102 L -2.413548590005328 0.7441198978362102 C -2.387942671829891 0.5694955776878532 -2.236557944707012 0.4342976854286604 -2.0551242774474443 0.4342976854286604 Z" fill="#74b1e0" transform="matrix(1,0,0,1,0,0)" fill-rule="evenodd"></path><path d=" M -1.6218834189373346 0.04242746205982967 L -1.557995721040975 0.03243682495209174 C -1.7340989944080563 0.05997000404067962 -1.861372162336917 0.21193552841716148 -1.864212984977884 0.38459869497443905 L -1.927787945891534 0.38459869497443905 C -1.9203130698318973 0.21609046261601567 -1.7945835593250803 0.0694214394540909 -1.6218834189373346 0.04242746205982967 Z" fill="#73d0ee" transform="matrix(1,0,0,1,0,0)" fill-rule="evenodd"></path></g></g><defs><clipPath id="SvgjsClipPath1022"><path d=" M -2.4409877939414764 -0.026722844373157972 h 2.0409877939414764 v 1.148445688746316 h -2.0409877939414764 Z"></path></clipPath></defs></svg>